PathFileType	4	(X/Y/Z)	C:/Users/beibeiliu/ov580/test_trc/User3\out1_training_dense_left.trc
DataRate	CameraRate	NumFrames	NumMarkers	Units	OrigDataRate	OrigDataStartFrame	OrigNumFrames
120	120	18	19	mm	120	1	500
Frame#	Time	ThumbCMC			ThumbMCP			ThumbIP			ThumbTip			IndexMCP			IndexPIP			IndexTip			MiddleMCP			MiddlePIP			MiddleTip			RingMCP			RingPIP			RingTip			PinkyMCP			PinkyPIP			PinkyTip			BackHand1			BackHand2			BackHand3	
		X0	Y0	Z0	X1	Y1	Z1	X2	Y2	Z2	X3	Y3	Z3	X4	Y4	Z4	X5	Y5	Z5	X6	Y6	Z6	X7	Y7	Z7	X8	Y8	Z8	X9	Y9	Z9	X10	Y10	Z10	X11	Y11	Z11	X12	Y12	Z12	X13	Y13	Z13	X14	Y14	Z14	X15	Y15	Z15	X16	Y16	Z16	X17	Y17	Z17	X18	Y18	Z18	
0	0	-113.975	44.6755	37.5729	-93.5215	38.2684	19.0409	-70.7916	33.9455	-1.09064	-56.4021	27.2867	-21.0304	-134.066	60.8024	-39.3532	-125.414	60.4956	-64.9298	-119.881	57.9675	-95.3443	-157.998	62.1824	-46.404	-158.561	59.9291	-75.1693	-159.778	50.7744	-106.152	-178.435	56.9416	-39.8633	-183.241	56.2968	-61.1422	-189.455	50.0235	-87.3407	-201.158	48.3838	-22.2501	-207.488	46.12	-40.1408	-212.01	42.9098	-64.763	-175.836	66.6299	11.546	-175.925	65.8241	46.4637	-143.703	66.8853	25.4635	
1	0.00833333	-116.62	43.5488	36.6875	-94.0328	38.7337	19.0287	-77.5173	32.9004	-2.13052	-59.2757	26.3909	-20.2966	-135.355	60.5985	-39.3614	-127.833	60.9019	-67.7209	-123.175	57.1865	-94.8539	-158.101	61.8337	-47.457	-158.176	59.8854	-71.3054	-160.54	50.3898	-104.827	-183.356	56.5447	-36.1699	-182.828	55.0666	-60.3207	-189.735	49.1248	-91.1832	-198.769	46.7126	-17.4186	-209.264	45.6744	-43.8783	-215.382	43.8291	-62.1648	-178.921	64.3504	16.5618	-176.365	66.3824	44.927	-144.111	65.5384	25.0808	
2	0.0166667	-117.683	43.6269	39.282	-97.3898	38.7328	21.7562	-74.2501	33.8134	-3.52067	-63.3777	27.1758	-16.6165	-130.448	60.8749	-41.8277	-128.699	60.6923	-64.8063	-120.092	57.9968	-89.7019	-160.721	62.9355	-43.3717	-158.853	60.1596	-71.7604	-157.607	51.6119	-102.653	-178.333	57.225	-33.9112	-183.883	55.108	-64.0908	-190.626	49.199	-89.485	-200.616	48.8531	-17.9565	-209.263	46.2386	-41.1276	-213.614	42.4558	-61.9885	-180.047	65.9842	16.5881	-176.41	65.7434	45.0415	-146.097	66.0307	28.6611	
3	0.025	-113.886	42.8564	35.5118	-97.068	37.2279	19.018	-76.1392	32.4147	-1.76029	-62.2706	26.1292	-14.5865	-133.158	58.318	-40.9548	-124.161	58.7044	-67.1031	-125.532	56.1947	-88.3103	-158.323	59.9475	-41.5298	-159.341	57.2964	-73.2313	-160.5	48.7673	-102.606	-178.113	55.0972	-35.8605	-184.644	53.1191	-61.9234	-187.954	48.4497	-84.2447	-195.668	45.1208	-16.3827	-204.662	45.6448	-40.315	-214.091	43.2033	-61.035	-178.229	62.416	14.0788	-180.063	63.6084	44.7174	-144.563	64.3874	26.1383	
4	0.0333333	-118.472	43.0544	38.1209	-95.4039	38.7937	17.0006	-73.5403	33.9082	-0.0127736	-58.8223	27.8568	-15.7544	-130.589	59.8509	-38.0206	-125.954	60.3454	-62.8166	-120.486	58.5133	-88.1472	-156.315	62.6914	-47.8082	-156.724	57.6973	-76.1225	-157.851	50.9793	-101.939	-182.839	55.2535	-35.3465	-183.587	54.8523	-64.0711	-190.393	48.3748	-88.9358	-201.465	46.5899	-18.9498	-203.376	46.1783	-39.8148	-214.167	43.9611	-62.1052	-179.073	65.3447	14.258	-174.542	65.7716	42.3922	-145.428	64.79	25.4292	
5	0.0416667	-117.759	44.6884	33.3329	-96.6682	39.9654	17.0545	-75.1788	35.1764	-4.67855	-58.1213	28.6623	-17.0825	-129.836	60.5386	-37.6169	-128.174	60.9145	-67.9458	-120.731	58.8948	-89.0387	-160.245	62.8014	-47.5578	-157.062	60.1052	-74.2291	-160.519	51.5706	-103.656	-183.423	56.5864	-36.3186	-186.602	55.567	-64.2682	-191.509	50.5162	-86.6085	-199.251	48.8402	-19.6583	-203.7	47.3519	-38.9733	-214.161	42.5603	-62.2456	-175.663	66.088	16.6215	-177.008	65.9687	43.6763	-142.24	65.9111	25.7998	
6	0.05	-115.096	45.0286	34.102	-93.698	39.8117	17.0196	-76.933	32.8164	-0.640224	-60.9594	27.9989	-16.8353	-133.208	60.8961	-42.8732	-124.704	59.8874	-63.6219	-122.712	57.9851	-89.6144	-160.766	62.6061	-47.9205	-156.326	60.121	-71.8615	-157.912	52.0003	-105.739	-178.271	56.0947	-34.502	-184.768	55.0795	-61.3773	-187.995	50.9719	-90.7483	-201.332	47.8067	-19.5927	-206.839	46.242	-44.0835	-213.988	42.631	-63.9415	-174.409	63.4879	16.7685	-178.218	65.503	45.4779	-145.265	67.11	27.4482	
7	0.0583333	-115.846	44.591	39.2418	-95.0388	38.6182	20.3526	-72.6189	34.2946	-2.83365	-57.9157	27.7693	-15.2663	-132.282	60.615	-41.0517	-123.869	58.9365	-68.0833	-123.688	57.3089	-89.6707	-159.045	61.5926	-47.3106	-157.582	58.7366	-72.3992	-154.757	49.2828	-107.858	-178.313	55.6809	-35.4408	-187.283	53.7366	-61.3012	-190.231	49.0772	-86.4858	-201.326	48.1161	-21.5063	-205.382	45.5478	-40.2162	-213.614	40.7868	-66.2798	-180.012	63.0992	17.4089	-178.425	64.8011	43.8217	-142.58	67.4081	26.6584	
8	0.0666667	-116.054	42.794	36.6507	-95.4818	37.5678	17.6211	-77.4152	32.2463	-2.26716	-59.8222	26.7344	-20.0588	-132.525	59.151	-38.3102	-125.385	58.688	-68.5409	-118.557	54.7186	-93.5399	-158.549	60.5688	-43.5745	-160.575	57.1286	-75.4879	-157.653	48.4075	-104.791	-180.673	54.9593	-36.4189	-186.883	53.1392	-60.5757	-187.577	47.1498	-89.1692	-201.04	45.6133	-16.6313	-205.277	44.577	-38.5469	-214.564	40.9504	-63.3709	-177.465	61.6105	15.8252	-178.848	62.8267	47.1239	-144.44	63.7975	27.9121	
9	0.075	-118.085	43.1019	38.267	-91.6841	38.3049	19.5182	-72.8607	33.3941	1.28298	-62.527	25.3462	-16.7106	-130.433	59.498	-39.3037	-127.175	59.8438	-63.858	-121.403	56.9259	-90.9618	-156.034	61.6414	-46.0135	-154.972	58.6465	-73.5767	-155.399	49.001	-103.413	-176.579	56.4888	-37.9622	-186.498	54.6855	-59.301	-187.879	47.1697	-87.5297	-195.686	46.1953	-17.095	-205.926	44.6924	-41.5631	-211.569	41.1694	-62.9936	-179.531	63.1912	16.372	-178.283	65.0522	42.7839	-142.853	65.0007	28.5748	
10	0.0833333	-115.938	43.7231	36.8044	-94.1734	38.1477	19.9789	-74.3158	32.4054	-0.887162	-59.0211	26.2369	-17.6043	-132.98	58.4143	-40.41	-124.61	58.2972	-64.3438	-122.163	55.6498	-92.7163	-157.535	60.778	-47.3935	-156.003	57.1981	-72.0575	-159.294	48.7299	-102.731	-182.934	54.5725	-35.098	-186.122	54.0975	-59.409	-187.755	47.5901	-88.8451	-196.028	45.6406	-17.1309	-205.434	45.3489	-40.8088	-211.668	40.7316	-62.2052	-179.421	62.5498	16.9664	-177.781	63.3923	42.0019	-145.123	65.3422	27.7427	
11	0.0916667	-119.635	41.6437	39.3289	-92.1735	38.0395	22.4329	-73.1032	32.9304	1.19967	-62.8222	25.7774	-16.4815	-131.554	58.3518	-40.3957	-124.706	58.0245	-66.4626	-122.764	56.0938	-88.6446	-157.855	60.0903	-44.1626	-158.888	57.4344	-73.6802	-158.448	48.851	-106.137	-181.458	54.085	-33.091	-182.971	53.5926	-58.7931	-189.855	48.434	-84.7486	-195.809	47.3413	-21.7759	-203.445	45.0712	-38.5439	-214.657	41.0517	-63.2643	-179.35	64.1073	15.3477	-180.045	64.339	44.4764	-142.333	63.1189	26.1111	
12	0.1	-119.54	42.0067	35.3507	-97.5129	35.6442	19.6544	-73.05	31.2183	1.0283	-59.314	26.1665	-14.9067	-130.846	57.8425	-40.9055	-123.122	57.7294	-64.8767	-121.701	56.0014	-87.1789	-156.31	59.1354	-45.7937	-158.759	56.1115	-74.6497	-159.796	49.6092	-102.046	-183.181	53.7356	-34.1968	-182.31	52.8165	-61.7054	-189.108	47.5069	-86.1022	-199.205	44.6765	-16.7089	-205.478	44.0148	-37.2035	-213.358	41.833	-63.8726	-175.15	60.8064	13.9402	-177.122	62.1339	46.8515	-144.386	61.5218	28.8789	
13	0.108333	-118.528	41.5087	38.5406	-93.7576	37.5808	18.8731	-73.5624	33.2608	-1.7552	-59.8098	26.3758	-17.5751	-136.072	58.7803	-38.5067	-127.351	59.8888	-63.1652	-123.101	57.0328	-92.0609	-159.088	61.5793	-47.8153	-158.046	57.8173	-74.8773	-158.487	50.6504	-102.391	-181.428	55.3799	-37.0532	-184.953	53.8274	-58.4583	-188.974	48.7245	-85.1851	-197.706	47.8546	-21.6741	-208.315	44.4582	-43.0366	-213.392	41.7831	-63.9668	-176.825	61.8309	13.5911	-177.641	65.1708	43.862	-144.735	65.1421	30.2039	
14	0.116667	-117.613	42.3807	37.8503	-96.5711	36.7313	21.4479	-75.1383	31.7387	0.351674	-63.3724	25.6169	-17.1859	-137.021	58.6611	-41.2872	-130.129	58.7018	-65.1282	-124.901	55.0673	-91.4513	-159.063	59.9312	-44.2391	-158.526	57.0046	-73.1708	-162.007	47.8755	-107.189	-182.083	54.4022	-35.6536	-186.783	53.183	-60.5121	-189.442	47.1552	-84.44	-203.596	46.14	-20.2551	-210.345	43.9365	-37.6631	-218.809	39.154	-64.7554	-181.578	62.219	17.1792	-177.759	61.8655	43.517	-147.09	63.872	27.5409	
15	0.125	-118.614	36.9378	39.0289	-97.7049	32.2744	19.4917	-75.508	28.8419	-3.11814	-63.1683	21.0839	-14.2656	-136.175	52.0293	-37.8601	-127.647	52.19	-63.5371	-127.716	49.6857	-92.6551	-163.697	53.5421	-41.4374	-159.57	50.3102	-74.1706	-161.637	42.5982	-101.975	-184.783	47.3757	-31.6163	-186.949	45.765	-56.7758	-193.415	39.644	-83.0718	-205.183	38.134	-16.3081	-210.031	35.8179	-36.7265	-217.477	31.2807	-60.9251	-180.364	54.5774	15.9478	-179.151	56.4356	46.1849	-146.28	59.9053	26.4293	
16	0.133333	-118.618	33.6073	42.0613	-95.8299	29.4092	18.9365	-77.9359	24.8538	0.677284	-62.287	19.8961	-17.2101	-138.273	44.1828	-34.781	-132.265	43.2372	-64.9809	-128	41.4659	-88.3019	-166.07	43.6192	-38.9425	-164.94	41.0065	-70.3569	-164.043	32.686	-99.6	-182.641	37.5757	-31.9291	-190.766	36.0843	-57.1129	-195.283	29.4761	-85.1472	-204.242	27.6258	-15.7534	-211.285	24.4691	-33.7754	-218.459	17.97	-55.8619	-181.774	47.5854	21.4941	-179.591	51.6004	45.4331	-149.531	53.7035	26.9731	
17	0.141667	-116.899	31.1618	41.7857	-97.9643	25.362	25.3276	-76.9736	21.6054	4.97917	-59.8401	17.1612	-11.1302	-134.592	35.5555	-32.92	-131.156	33.4008	-63.2775	-126.189	31.0005	-85.6473	-163.824	33.6115	-42.5549	-160.857	29.2566	-68.126	-162.691	18.6946	-101.816	-184.86	26.0548	-30.7792	-189.225	23.1031	-53.1431	-188.296	14.4936	-81.7477	-200.256	15.2267	-12.0078	-210.897	8.49871	-34.0039	-216.178	1.65328	-51.2245	-180.398	39.795	18.6413	-182.684	43.719	45.4864	-151.618	47.2204	29.2086	
